<svg width="65" height="33" viewBox="0 0 65.4766 33" fill="none" xmlns="http://www.w3.org/2000/svg">
<g clip-path="url(#clip0_0_22)">
<g>
<path d="M23.9558 32.9752C23.9158 32.9888 23.8758 32.996 23.8358 33H23.6181C23.5941 33 23.5693 32.9984 23.5453 32.9984H8.0021C7.98129 32.9992 7.96048 32.9992 7.93967 33H7.8012C7.78039 33 7.75958 33 7.73957 32.9984C7.69555 32.992 7.65794 32.9936 7.62432 33H8.90561e-06C0.773965 31.2848 1.54712 29.5704 2.32268 27.8544C6.46139 18.6926 10.5985 9.52997 14.7332 0.366553C14.8629 0.0800206 15.0189 -0.00161702 15.3199 -1.62862e-05C15.6048 0.00158445 15.8889 0.00318519 16.1739 0.00398556C15.5688 0.0552092 15.1806 0.696304 15.4375 1.26377C16.2091 2.97175 16.9806 4.67974 17.7522 6.38773C18.0507 7.04643 18.3485 7.70513 18.6462 8.36384L10.5993 26.1408C10.7434 26.1784 10.8938 26.1896 11.0427 26.1744C14.2138 26.1744 17.3848 26.1808 20.5559 26.1688C20.8512 26.1688 20.9865 26.2529 21.1065 26.5242C22.0037 28.5523 22.921 30.5709 23.8278 32.5942C23.8822 32.7151 23.9759 32.8263 23.9558 32.9752Z" fill="#6565DB" fill-opacity="0.86"/>
<path d="M23.9558 32.9752C23.9158 32.9888 23.8758 32.996 23.8358 33H23.6181C23.5941 33 23.5693 32.9984 23.5453 32.9984H8.0021C7.98129 32.9992 7.96048 32.9992 7.93967 33H7.8012C7.78039 33 7.75958 33 7.73957 32.9984C7.69555 32.992 7.65794 32.9936 7.62432 33H8.90561e-06C0.773965 31.2848 1.54712 29.5704 2.32268 27.8544C6.46139 18.6926 10.5985 9.52997 14.7332 0.366553C14.8629 0.0800206 15.0189 -0.00161702 15.3199 -1.62862e-05C15.6048 0.00158445 15.8889 0.00318519 16.1739 0.00398556C15.5688 0.0552092 15.1806 0.696304 15.4375 1.26377C16.2091 2.97175 16.9806 4.67974 17.7522 6.38773C18.0507 7.04643 18.3485 7.70513 18.6462 8.36384L10.5993 26.1408C10.7434 26.1784 10.8938 26.1896 11.0427 26.1744C14.2138 26.1744 17.3848 26.1808 20.5559 26.1688C20.8512 26.1688 20.9865 26.2529 21.1065 26.5242C22.0037 28.5523 22.921 30.5709 23.8278 32.5942C23.8822 32.7151 23.9759 32.8263 23.9558 32.9752Z" fill="url(#paint0_linear_0_22)" fill-opacity="0.6"/>
</g>
<g>
<path d="M52.1234 0.10885C51.3654 1.78722 50.6083 3.4656 49.8495 5.14557C47.8894 9.48437 45.9301 13.8224 43.9716 18.1612C42.7182 20.936 41.4656 23.7101 40.2139 26.485C39.2886 28.5347 38.3634 30.5837 37.439 32.6334C37.3093 32.92 37.1533 33.0016 36.8523 33C36.4978 32.9976 36.1432 32.996 35.7886 32.9952C34.6825 32.9904 33.5756 32.9896 32.4687 32.992C31.7076 32.9928 30.9464 32.996 30.1853 33C29.8651 33 29.705 32.916 29.573 32.6158C25.9305 24.5297 22.2808 16.4452 18.6239 8.36385C18.3262 7.70515 18.0285 7.04645 17.7299 6.38774C16.9584 4.67976 16.1868 2.97177 15.4153 1.26378C15.1583 0.696321 15.5465 0.0552254 16.1524 0.00400184C18.0893 0.0128059 20.027 0.0112052 21.9647 0C22.1904 0 22.336 0.0416192 22.4481 0.171279C26.0682 8.19738 29.6906 16.2227 33.3171 24.244C33.3555 24.3288 33.3955 24.4128 33.4436 24.5121C33.4532 24.5321 33.4692 24.5457 33.4876 24.5513C33.5228 24.5641 33.566 24.5505 33.5836 24.5113L36.4569 18.1628L40.2187 9.85094L41.5337 6.9464C41.5545 6.89998 41.5265 6.84715 41.4769 6.83755C41.3624 6.81754 41.2455 6.81354 41.1295 6.82554C40.3707 6.82554 39.612 6.82554 38.8532 6.82554C37.8456 4.59172 36.8379 2.35869 35.8303 0.124858C35.799 0.0552254 35.7326 0.00880406 35.6582 0.00240111H44.1701C44.1909 0.00160074 44.2117 0.00160074 44.2325 0.000800369H44.371C44.3918 0.00160074 44.4126 0.00160074 44.4326 0.00240111C44.4766 0.00800369 44.5143 0.00720332 44.5479 0.000800369H52.0529C52.1089 0.000800369 52.1466 0.0584269 52.1234 0.109651V0.10885Z" fill="#6565DB" fill-opacity="0.86"/>
<path d="M52.1234 0.10885C51.3654 1.78722 50.6083 3.4656 49.8495 5.14557C47.8894 9.48437 45.9301 13.8224 43.9716 18.1612C42.7182 20.936 41.4656 23.7101 40.2139 26.485C39.2886 28.5347 38.3634 30.5837 37.439 32.6334C37.3093 32.92 37.1533 33.0016 36.8523 33C36.4978 32.9976 36.1432 32.996 35.7886 32.9952C34.6825 32.9904 33.5756 32.9896 32.4687 32.992C31.7076 32.9928 30.9464 32.996 30.1853 33C29.8651 33 29.705 32.916 29.573 32.6158C25.9305 24.5297 22.2808 16.4452 18.6239 8.36385C18.3262 7.70515 18.0285 7.04645 17.7299 6.38774C16.9584 4.67976 16.1868 2.97177 15.4153 1.26378C15.1583 0.696321 15.5465 0.0552254 16.1524 0.00400184C18.0893 0.0128059 20.027 0.0112052 21.9647 0C22.1904 0 22.336 0.0416192 22.4481 0.171279C26.0682 8.19738 29.6906 16.2227 33.3171 24.244C33.3555 24.3288 33.3955 24.4128 33.4436 24.5121C33.4532 24.5321 33.4692 24.5457 33.4876 24.5513C33.5228 24.5641 33.566 24.5505 33.5836 24.5113L36.4569 18.1628L40.2187 9.85094L41.5337 6.9464C41.5545 6.89998 41.5265 6.84715 41.4769 6.83755C41.3624 6.81754 41.2455 6.81354 41.1295 6.82554C40.3707 6.82554 39.612 6.82554 38.8532 6.82554C37.8456 4.59172 36.8379 2.35869 35.8303 0.124858C35.799 0.0552254 35.7326 0.00880406 35.6582 0.00240111H44.1701C44.1909 0.00160074 44.2117 0.00160074 44.2325 0.000800369H44.371C44.3918 0.00160074 44.4126 0.00160074 44.4326 0.00240111C44.4766 0.00800369 44.5143 0.00720332 44.5479 0.000800369H52.0529C52.1089 0.000800369 52.1466 0.0584269 52.1234 0.109651V0.10885Z" fill="url(#paint1_linear_0_22)" fill-opacity="0.6"/>
</g>
<g>
<path d="M65.4575 0.297737C63.8287 3.9042 62.2 7.51066 60.572 11.1179C60.496 11.286 60.4199 11.4549 60.3439 11.623C57.1808 18.6262 54.0194 25.6294 50.8587 32.6334C50.7291 32.92 50.573 33.0016 50.2721 33C48.0502 32.9872 45.8284 32.9872 43.605 33C43.2848 33 43.1248 32.916 42.9927 32.6158C42.0723 30.5725 41.1511 28.5291 40.2298 26.4858C38.9789 23.7109 37.7271 20.9368 36.4729 18.1628C34.7593 14.3666 33.0433 10.5705 31.3249 6.77592C31.2217 6.7231 31.1497 6.62945 31.0816 6.47658C30.1844 4.44845 29.2672 2.42992 28.3604 0.406587C28.3139 0.30334 28.2387 0.207295 28.2307 0.0880406C28.2283 0.0504232 28.2555 0.0168077 28.2923 0.00880406C28.3123 0.00480221 28.3324 0.00240111 28.3524 0H28.5701C28.5941 0.00160074 28.6189 0.00240111 28.6429 0.00240111H35.6845C35.755 0.0128059 35.8158 0.0584269 35.8462 0.124057C36.8539 2.35789 37.8615 4.59172 38.8692 6.82554C39.3246 7.83401 39.78 8.84247 40.2346 9.85094C41.4856 12.6218 42.7366 15.3919 43.9876 18.162C44.904 20.1893 45.8204 22.2166 46.7368 24.244C46.7368 24.2456 46.7368 24.2472 46.7384 24.248C46.8129 24.4128 47.0474 24.412 47.1218 24.2472L52.8364 11.623L54.9926 6.85916L54.983 6.85676L58.0308 0.124057C58.0653 0.0488225 58.1397 0 58.2229 0H65.2654C65.4182 0 65.5207 0.158473 65.4575 0.297737Z" fill="#6565DB" fill-opacity="0.86"/>
<path d="M65.4575 0.297737C63.8287 3.9042 62.2 7.51066 60.572 11.1179C60.496 11.286 60.4199 11.4549 60.3439 11.623C57.1808 18.6262 54.0194 25.6294 50.8587 32.6334C50.7291 32.92 50.573 33.0016 50.2721 33C48.0502 32.9872 45.8284 32.9872 43.605 33C43.2848 33 43.1248 32.916 42.9927 32.6158C42.0723 30.5725 41.1511 28.5291 40.2298 26.4858C38.9789 23.7109 37.7271 20.9368 36.4729 18.1628C34.7593 14.3666 33.0433 10.5705 31.3249 6.77592C31.2217 6.7231 31.1497 6.62945 31.0816 6.47658C30.1844 4.44845 29.2672 2.42992 28.3604 0.406587C28.3139 0.30334 28.2387 0.207295 28.2307 0.0880406C28.2283 0.0504232 28.2555 0.0168077 28.2923 0.00880406C28.3123 0.00480221 28.3324 0.00240111 28.3524 0H28.5701C28.5941 0.00160074 28.6189 0.00240111 28.6429 0.00240111H35.6845C35.755 0.0128059 35.8158 0.0584269 35.8462 0.124057C36.8539 2.35789 37.8615 4.59172 38.8692 6.82554C39.3246 7.83401 39.78 8.84247 40.2346 9.85094C41.4856 12.6218 42.7366 15.3919 43.9876 18.162C44.904 20.1893 45.8204 22.2166 46.7368 24.244C46.7368 24.2456 46.7368 24.2472 46.7384 24.248C46.8129 24.4128 47.0474 24.412 47.1218 24.2472L52.8364 11.623L54.9926 6.85916L54.983 6.85676L58.0308 0.124057C58.0653 0.0488225 58.1397 0 58.2229 0H65.2654C65.4182 0 65.5207 0.158473 65.4575 0.297737Z" fill="url(#paint2_linear_0_22)" fill-opacity="0.6"/>
</g>
</g>
<defs>
<linearGradient id="paint0_linear_0_22" x1="19" y1="6" x2="-16.5" y2="49.5" gradientUnits="userSpaceOnUse">
<stop stop-color="white" stop-opacity="0"/>
<stop offset="1" stop-color="white"/>
</linearGradient>
<linearGradient id="paint1_linear_0_22" x1="2.00003" y1="33" x2="73" y2="-4.00001" gradientUnits="userSpaceOnUse">
<stop stop-color="white"/>
<stop offset="0.52791" stop-color="white" stop-opacity="0"/>
<stop offset="0.919859" stop-color="white"/>
</linearGradient>
<linearGradient id="paint2_linear_0_22" x1="69.0001" y1="6.2619e-07" x2="16.0001" y2="31" gradientUnits="userSpaceOnUse">
<stop stop-color="white" stop-opacity="0"/>
<stop offset="1" stop-color="white"/>
</linearGradient>
<clipPath id="clip0_0_22">
<rect width="65.4766" height="33" fill="white"/>
</clipPath>
</defs>
</svg>
