<svg width="65" height="33" viewBox="0 0 65.4766 33" fill="none" xmlns="http://www.w3.org/2000/svg">
<g id="Layer_1" clip-path="url(#clip0_0_22)">
<g id="Vector">
<path d="M23.9558 32.9752C23.9158 32.9888 23.8758 32.996 23.8358 33H23.6181C23.5941 33 23.5693 32.9984 23.5453 32.9984H8.0021C7.98129 32.9992 7.96048 32.9992 7.93967 33H7.8012C7.78039 33 7.75958 33 7.73957 32.9984C7.69555 32.992 7.65794 32.9936 7.62432 33H8.90561e-06C0.773965 31.2848 1.54712 29.5704 2.32268 27.8544C6.46139 18.6926 10.5985 9.52997 14.7332 0.366553C14.8629 0.0800206 15.0189 -0.00161702 15.3199 -1.62862e-05C15.6048 0.00158445 15.8889 0.00318519 16.1739 0.00398556C15.5688 0.0552092 15.1806 0.696304 15.4375 1.26377C16.2091 2.97175 16.9806 4.67974 17.7522 6.38773C18.0507 7.04643 18.3485 7.70513 18.6462 8.36384L10.5993 26.1408C10.7434 26.1784 10.8938 26.1896 11.0427 26.1744C14.2138 26.1744 17.3848 26.1808 20.5559 26.1688C20.8512 26.1688 20.9865 26.2529 21.1065 26.5242C22.0037 28.5523 22.921 30.5709 23.8278 32.5942C23.8822 32.7151 23.9759 32.8263 23.9558 32.9752Z" fill="#8B87D6"/>
</g>
<g id="Vector_2">
<path d="M52.1234 0.10885C51.3654 1.78722 50.6083 3.4656 49.8495 5.14557C47.8894 9.48437 45.9301 13.8224 43.9716 18.1612C42.7182 20.936 41.4656 23.7101 40.2139 26.485C39.2886 28.5347 38.3634 30.5837 37.439 32.6334C37.3093 32.92 37.1533 33.0016 36.8523 33C36.4978 32.9976 36.1432 32.996 35.7886 32.9952C34.6825 32.9904 33.5756 32.9896 32.4687 32.992C31.7076 32.9928 30.9464 32.996 30.1853 33C29.8651 33 29.705 32.916 29.573 32.6158C25.9305 24.5297 22.2808 16.4452 18.6239 8.36385C18.3262 7.70515 18.0285 7.04645 17.7299 6.38774C16.9584 4.67976 16.1868 2.97177 15.4153 1.26378C15.1583 0.696321 15.5465 0.0552254 16.1524 0.00400184C18.0893 0.0128059 20.027 0.0112052 21.9647 0C22.1904 0 22.336 0.0416192 22.4481 0.171279C26.0682 8.19738 29.6906 16.2227 33.3171 24.244C33.3555 24.3288 33.3955 24.4128 33.4436 24.5121C33.4532 24.5321 33.4692 24.5457 33.4876 24.5513C33.5228 24.5641 33.566 24.5505 33.5836 24.5113L36.4569 18.1628L40.2187 9.85094L41.5337 6.9464C41.5545 6.89998 41.5265 6.84715 41.4769 6.83755C41.3624 6.81754 41.2455 6.81354 41.1295 6.82554C40.3707 6.82554 39.612 6.82554 38.8532 6.82554C37.8456 4.59172 36.8379 2.35869 35.8303 0.124858C35.799 0.0552254 35.7326 0.00880406 35.6582 0.00240111H44.1701C44.1909 0.00160074 44.2117 0.00160074 44.2325 0.000800369H44.371C44.3918 0.00160074 44.4126 0.00160074 44.4326 0.00240111C44.4766 0.00800369 44.5143 0.00720332 44.5479 0.000800369H52.0529C52.1089 0.000800369 52.1466 0.0584269 52.1234 0.109651V0.10885Z" fill="#8B87D6"/>
</g>
<g id="Vector_3">
<path d="M65.4766 0C64.7026 1.71519 63.9286 3.43038 63.1546 5.14557C61.1953 9.48437 59.236 13.8232 57.2767 18.162C56.0233 20.9367 54.7707 23.7109 53.5189 26.4858C52.5937 28.5355 51.6685 30.5845 50.744 32.6342C50.6143 32.9208 50.4583 33.0024 50.1573 33.0008C49.4537 32.9968 48.75 32.9936 48.0464 32.9912C47.4317 32.9888 46.817 32.9872 46.2022 32.9864C45.8076 32.9856 45.413 32.986 45.0184 32.9868H44.9592C44.9071 32.9892 44.8639 32.9524 44.8527 32.9016C44.8439 32.8599 44.8623 32.8167 44.8983 32.7927L45.6683 31.0895L51.1881 18.8744C51.8329 17.4483 52.4776 16.0214 53.1224 14.5953C54.5855 11.3635 56.0493 8.13093 57.5132 4.89839C58.1811 3.42157 58.8491 1.94556 59.5171 0.468745C59.6116 0.263634 59.7028 0.0529172 59.7996 -0.000816491L65.4766 0Z" fill="#8B87D6"/>
</g>
</g>
<defs>
<clipPath id="clip0_0_22">
<rect width="65.4766" height="33" fill="white"/>
</clipPath>
</defs>
</svg>
