<svg width="24" height="24" viewBox="0 0 23 23" fill="none" xmlns="http://www.w3.org/2000/svg">
<path d="M11.2941 2.03294C14.3111 2.03294 14.6682 2.04706 15.8555 2.10071C16.9581 2.14871 17.5539 2.33365 17.952 2.48894C18.4772 2.69082 18.8555 2.93788 19.248 3.33035C19.6461 3.72847 19.8889 4.10259 20.0908 4.62918C20.2461 5.02447 20.4296 5.62447 20.4791 6.72424C20.5327 7.91435 20.5454 8.27153 20.5454 11.2842C20.5454 14.3026 20.5313 14.6598 20.4791 15.8471C20.4311 16.9496 20.2461 17.5454 20.0908 17.9421C19.8889 18.4673 19.6405 18.8471 19.248 19.2409C18.8847 19.6152 18.4417 19.9028 17.952 20.0824C17.5539 20.2376 16.9539 20.4212 15.8555 20.4706C14.664 20.5228 14.3068 20.5369 11.2941 20.5369C8.27718 20.5369 7.92 20.5228 6.73271 20.4706C5.63012 20.4226 5.03435 20.2362 4.63623 20.0824C4.14666 19.9018 3.70379 19.6138 3.34024 19.2395C2.96531 18.8759 2.67722 18.4325 2.49741 17.9421C2.34212 17.5468 2.15859 16.9454 2.10918 15.8471C2.05553 14.6555 2.04282 14.2984 2.04282 11.2856C2.04282 8.26729 2.05694 7.91153 2.10918 6.72424C2.15718 5.62024 2.34212 5.02447 2.49741 4.62776C2.70071 4.10259 2.94776 3.72424 3.34024 3.33035C3.70357 2.95612 4.14653 2.66853 4.63623 2.48894C5.03435 2.33365 5.63435 2.14871 6.73271 2.10071C7.91859 2.04706 8.27718 2.03294 11.2941 2.03294ZM11.2941 0C8.22776 0 7.84376 0.0141176 6.63953 0.0663529C5.43953 0.118588 4.61506 0.313412 3.90071 0.591529C3.14493 0.874825 2.46058 1.32062 1.896 1.89741C1.32161 2.46067 0.876936 3.14238 0.592941 3.89506C0.313412 4.61647 0.118588 5.43529 0.0663529 6.63529C0.0127059 7.84377 0 8.22777 0 11.2941C0 14.3605 0.0141176 14.7445 0.0663529 15.9487C0.118588 17.1487 0.313412 17.9732 0.591529 18.6875C0.882353 19.4344 1.26635 20.0654 1.89741 20.6922C2.52424 21.3176 3.15388 21.7059 3.89506 21.9925C4.61506 22.2706 5.43529 22.464 6.63529 22.5176C7.83953 22.5699 8.22353 22.584 11.2899 22.584C14.3562 22.584 14.7402 22.5699 15.9445 22.5176C17.1445 22.464 17.9689 22.2706 18.6833 21.9925C19.4366 21.7095 20.1188 21.2652 20.6824 20.6908C21.2566 20.1277 21.7008 19.4459 21.984 18.6932C22.2621 17.9732 22.4555 17.1529 22.5092 15.9529C22.5614 14.7487 22.5755 14.3647 22.5755 11.2984C22.5755 8.232 22.5614 7.848 22.5092 6.64376C22.4555 5.44376 22.2621 4.61929 21.984 3.90494C21.7115 3.14597 21.2692 2.45931 20.6908 1.89741C20.1277 1.32322 19.4459 0.87898 18.6932 0.595765C17.9718 0.317647 17.1529 0.124235 15.9529 0.0705883C14.7445 0.0141177 14.3605 0 11.2941 0Z" fill="white"/>
<path d="M11.2941 5.49186C9.75527 5.49186 8.27942 6.10318 7.19127 7.19133C6.10311 8.27948 5.4918 9.75533 5.4918 11.2942C5.4918 12.8331 6.10311 14.3089 7.19127 15.3971C8.27942 16.4852 9.75527 17.0966 11.2941 17.0966C12.833 17.0966 14.3089 16.4852 15.397 15.3971C16.4852 14.3089 17.0965 12.8331 17.0965 11.2942C17.0965 9.75533 16.4852 8.27948 15.397 7.19133C14.3089 6.10318 12.833 5.49186 11.2941 5.49186ZM11.2941 15.058C10.2959 15.058 9.33861 14.6614 8.63276 13.9556C7.92692 13.2498 7.53038 12.2924 7.53038 11.2942C7.53038 10.296 7.92692 9.33867 8.63276 8.63283C9.33861 7.92698 10.2959 7.53045 11.2941 7.53045C12.2924 7.53045 13.2497 7.92698 13.9555 8.63283C14.6614 9.33867 15.0579 10.296 15.0579 11.2942C15.0579 12.2924 14.6614 13.2498 13.9555 13.9556C13.2497 14.6614 12.2924 15.058 11.2941 15.058ZM18.6791 5.26315C18.685 5.44472 18.6543 5.62561 18.5888 5.79508C18.5234 5.96454 18.4245 6.11913 18.2982 6.24964C18.1718 6.38015 18.0205 6.48392 17.8532 6.55479C17.686 6.62566 17.5062 6.66218 17.3245 6.66218C17.1428 6.66218 16.963 6.62566 16.7958 6.55479C16.6285 6.48392 16.4772 6.38015 16.3508 6.24964C16.2245 6.11913 16.1256 5.96454 16.0602 5.79508C15.9947 5.62561 15.9641 5.44472 15.9699 5.26315C15.9699 4.90371 16.1127 4.55898 16.3669 4.30481C16.621 4.05065 16.9658 3.90786 17.3252 3.90786C17.6847 3.90786 18.0294 4.05065 18.2835 4.30481C18.5377 4.55898 18.6805 4.90371 18.6805 5.26315H18.6791Z" fill="white"/>
</svg>
