<svg width="24" height="24" viewBox="0 0 23 16" fill="none" xmlns="http://www.w3.org/2000/svg">
<path d="M22.3624 3.31765C22.3624 3.31765 22.1421 1.81129 21.4631 1.14918C20.6019 0.278117 19.6419 0.273882 19.2 0.223059C16.0405 0 11.2984 0 11.2984 0H11.2899C11.2899 0 6.54635 0 3.38824 0.223059C2.94635 0.273882 1.98494 0.278117 1.12518 1.14918C0.446118 1.81129 0.228706 3.31765 0.228706 3.31765C0.228706 3.31765 0 5.08941 0 6.85694V8.51435C0 10.2819 0.225882 12.0536 0.225882 12.0536C0.225882 12.0536 0.446118 13.56 1.12094 14.2221C1.98212 15.0932 3.11153 15.0635 3.61271 15.1567C5.42259 15.3233 11.2941 15.3741 11.2941 15.3741C11.2941 15.3741 16.0419 15.3656 19.2 15.1482C19.6419 15.0974 20.6033 15.0918 21.4631 14.2221C22.1421 13.56 22.3638 12.0536 22.3638 12.0536C22.3638 12.0536 22.5882 10.2861 22.5882 8.51435V6.85694C22.5882 5.08941 22.3624 3.31765 22.3624 3.31765ZM8.96188 10.5247V4.38071L15.0635 7.464L8.96188 10.5247Z" fill="white"/>
</svg>
