<svg width="24" height="24" viewBox="0 0 23 22" fill="none" xmlns="http://www.w3.org/2000/svg">
<path d="M20.9167 0H1.66588C0.745412 0 0 0.704471 0 1.57553V20.28C0 21.1511 0.745412 21.8598 1.66729 21.8598H20.9167C21.8386 21.8598 22.5882 21.1511 22.5882 20.2842V1.57553C22.5882 0.704471 21.8386 0 20.9167 0ZM6.70024 18.6282H3.35012V8.19247H6.70306V18.6282H6.70024ZM5.02588 6.77082C3.95012 6.77082 3.08047 5.93082 3.08047 4.89318C3.08047 3.85553 3.95012 3.01553 5.02588 3.01553C6.09882 3.01553 6.96706 3.85553 6.96706 4.89318C6.96706 5.92659 6.09882 6.77082 5.02588 6.77082ZM19.2494 18.6282H15.9021V13.5558C15.9021 12.3473 15.8795 10.7887 14.1586 10.7887C12.4165 10.7887 12.1511 12.1087 12.1511 13.4711V18.6282H8.80518V8.19247H12.0169V9.61835H12.0621C12.5068 8.79953 13.6009 7.93271 15.2301 7.93271C18.6226 7.93271 19.248 10.0927 19.248 12.9021V18.6282H19.2494Z" fill="white"/>
</svg>
