<svg preserveAspectRatio="none" width="100%" height="100%" overflow="visible" style="display: block;" viewBox="0 0 17.4594 20.027" fill="none" xmlns="http://www.w3.org/2000/svg">
<path id="Vector" d="M11.2973 17.4594C11.2973 18.5938 10.2702 19.5134 8.72969 19.5135C7.18916 19.5136 6.16214 18.5939 6.16214 17.4595M16.9459 15.9189L16.0951 15.0681C15.3246 14.2977 14.8918 13.2528 14.8918 12.1633V8.72977C14.8918 6.04674 13.1771 3.7642 10.7837 2.91827C10.7837 2.91827 10.7837 0.513511 8.72969 0.513511C6.67565 0.513511 6.67565 2.91827 6.67565 2.91827C4.28229 3.7642 2.56756 6.04674 2.56756 8.72977V12.1633C2.56756 13.2528 2.13474 14.2977 1.36433 15.0681L0.513511 15.9189V16.946H16.9459V15.9189Z" stroke="var(--stroke-0, white)" stroke-width="1.02702" stroke-linecap="round" stroke-linejoin="round"/>
</svg>
