<svg preserveAspectRatio="none" width="100%" height="100%" overflow="visible" style="display: block;" viewBox="0 0 20 20" fill="none" xmlns="http://www.w3.org/2000/svg">
<path id="Icon" d="M18 12V14.8C18 15.9201 18 16.4802 17.782 16.908C17.5903 17.2843 17.2843 17.5903 16.908 17.782C16.4802 18 15.9201 18 14.8 18H12M8 2H5.2C4.0799 2 3.51984 2 3.09202 2.21799C2.71569 2.40973 2.40973 2.71569 2.21799 3.09202C2 3.51984 2 4.07989 2 5.2V8M13 7L19 1M19 1H13M19 1V7M7 13L1 19M1 19H7M1 19L1 13" stroke="var(--stroke-0, black)" stroke-width="2" stroke-linecap="round" stroke-linejoin="round"/>
</svg>
